<mxfile host="app.diagrams.net" modified="2023-09-18T11:15:53.981Z" agent="Mozilla/5.0 (Windows NT 10.0; Win64; x64) AppleWebKit/537.36 (KHTML, like Gecko) Chrome/116.0.0.0 Safari/537.36" etag="XfmHRJr02BkhlqaC4Rbh" version="21.7.5" type="github">
  <diagram name="Page-1" id="tQfPLBi8K9xGGaVzHt_Q">
    <mxGraphModel dx="880" dy="478" grid="1" gridSize="10" guides="1" tooltips="1" connect="1" arrows="1" fold="1" page="1" pageScale="1" pageWidth="850" pageHeight="1100" math="0" shadow="0">
      <root>
        <mxCell id="0" />
        <mxCell id="1" parent="0" />
        <mxCell id="Wa0-3BYV7t-kmoMnkPTn-1" value="" style="html=1;dashed=0;whiteSpace=wrap;shape=mxgraph.dfd.start" vertex="1" parent="1">
          <mxGeometry x="380" y="130" width="80" height="30" as="geometry" />
        </mxCell>
        <mxCell id="Wa0-3BYV7t-kmoMnkPTn-2" value="" style="html=1;dashed=0;whiteSpace=wrap;shape=mxgraph.dfd.start" vertex="1" parent="1">
          <mxGeometry x="385" y="210" width="80" height="30" as="geometry" />
        </mxCell>
        <mxCell id="Wa0-3BYV7t-kmoMnkPTn-3" value="" style="html=1;dashed=0;whiteSpace=wrap;shape=mxgraph.dfd.start" vertex="1" parent="1">
          <mxGeometry x="385.5" y="350" width="80" height="30" as="geometry" />
        </mxCell>
        <mxCell id="Wa0-3BYV7t-kmoMnkPTn-4" value="" style="html=1;dashed=0;whiteSpace=wrap;shape=mxgraph.dfd.start" vertex="1" parent="1">
          <mxGeometry x="368" y="280" width="115" height="40" as="geometry" />
        </mxCell>
        <mxCell id="Wa0-3BYV7t-kmoMnkPTn-5" value="" style="shape=rhombus;html=1;dashed=0;whiteSpace=wrap;perimeter=rhombusPerimeter;" vertex="1" parent="1">
          <mxGeometry x="220" y="570" width="60" height="50" as="geometry" />
        </mxCell>
        <mxCell id="Wa0-3BYV7t-kmoMnkPTn-6" value="" style="shape=rhombus;html=1;dashed=0;whiteSpace=wrap;perimeter=rhombusPerimeter;" vertex="1" parent="1">
          <mxGeometry x="560" y="570" width="60" height="50" as="geometry" />
        </mxCell>
        <mxCell id="Wa0-3BYV7t-kmoMnkPTn-7" value="" style="line;strokeWidth=6;fillColor=none;align=left;verticalAlign=middle;spacingTop=-1;spacingLeft=3;spacingRight=3;rotatable=0;labelPosition=right;points=[];portConstraint=eastwest;strokeColor=inherit;" vertex="1" parent="1">
          <mxGeometry x="353" y="420" width="145" height="8" as="geometry" />
        </mxCell>
        <mxCell id="Wa0-3BYV7t-kmoMnkPTn-8" value="" style="html=1;dashed=0;whiteSpace=wrap;shape=mxgraph.dfd.start" vertex="1" parent="1">
          <mxGeometry x="540" y="490" width="100" height="50" as="geometry" />
        </mxCell>
        <mxCell id="Wa0-3BYV7t-kmoMnkPTn-9" value="" style="html=1;dashed=0;whiteSpace=wrap;shape=mxgraph.dfd.start" vertex="1" parent="1">
          <mxGeometry x="200" y="490" width="100" height="50" as="geometry" />
        </mxCell>
        <mxCell id="Wa0-3BYV7t-kmoMnkPTn-10" value="" style="ellipse;html=1;shape=endState;fillColor=#000000;strokeColor=#ff0000;" vertex="1" parent="1">
          <mxGeometry x="110" y="370" width="30" height="30" as="geometry" />
        </mxCell>
        <mxCell id="Wa0-3BYV7t-kmoMnkPTn-11" value="" style="ellipse;html=1;shape=startState;fillColor=#000000;strokeColor=#ff0000;" vertex="1" parent="1">
          <mxGeometry x="110" y="255" width="30" height="30" as="geometry" />
        </mxCell>
        <mxCell id="Wa0-3BYV7t-kmoMnkPTn-12" value="" style="edgeStyle=orthogonalEdgeStyle;html=1;verticalAlign=bottom;endArrow=open;endSize=8;strokeColor=#ff0000;rounded=0;" edge="1" source="Wa0-3BYV7t-kmoMnkPTn-11" parent="1">
          <mxGeometry relative="1" as="geometry">
            <mxPoint x="125" y="345" as="targetPoint" />
          </mxGeometry>
        </mxCell>
      </root>
    </mxGraphModel>
  </diagram>
</mxfile>
